<svg width="400" height="400" viewBox="0 0 400 400" fill="none" xmlns="http://www.w3.org/2000/svg">
<circle cx="200" cy="200" r="200" fill="#359EB6"/>
<path d="M63.0508 237.177H51.6074L54.0332 230.242H60.3613L51.001 206.011H62.3652L76.3135 241H64.5273L63.0508 237.177ZM48.4961 241H37.2373L49.7354 207.593L54.9033 221.488L48.4961 241ZM79.1084 233.538H82.6152V213.446H79.1084V206.011H97.7764V213.446H94.2695V233.538H97.7764V241H79.1084V233.538ZM103.419 241V206.011H115.073V241H103.419ZM116.919 212.998V206.011H130.234L137.248 212.998V223.492L131.869 228.871L131.5 228.133L120.558 229.583L120.979 230.506H116.919V223.729H125.673V212.998H116.919ZM138.435 241H125.989L120.979 230.506H130.234L131.869 228.871L138.435 241ZM164.222 241V227.896H149.087L142.073 220.882V212.998L149.087 206.011H153.042V218.43H169.126L175.902 225.443V234.013L168.915 241H164.222ZM154.888 212.312V206.011H168.889L174.953 212.102V215.819H164.222V212.312H154.888ZM142.073 230.506H153.728V234.672H162.376V241H147.953L142.073 234.013V230.506ZM189.666 229.873L177.801 206.011H189.244L201.347 230.69V241H189.666V229.873ZM202.085 228.238L196.416 216.742L202.164 206.011H213.37L202.085 228.238ZM237.417 241V227.896H222.282L215.269 220.882V212.998L222.282 206.011H226.237V218.43H242.321L249.098 225.443V234.013L242.11 241H237.417ZM228.083 212.312V206.011H242.084L248.148 212.102V215.819H237.417V212.312H228.083ZM215.269 230.506H226.923V234.672H235.571V241H221.148L215.269 234.013V230.506ZM262.176 215.45H274.305V241H262.176V215.45ZM253.053 206.011H283.428V213.631H253.053V206.011ZM299.538 226.63V241H287.884V206.011H299.538V219.88H310.691V226.63H299.538ZM301.384 212.787V206.011H319.604V216.136H308.635V212.787H301.384ZM301.384 241V234.013H307.949V230.506H319.604V241H301.384ZM325.246 206.011H337.639L347.025 221.567L354.408 208.911V226.524L345.997 241L325.246 206.011ZM356.122 241V206.011H367.776V241H356.122ZM325.22 241V209.254L336.109 227.526V241H325.22Z" fill="#2C1313"/>
<g filter="url(#filter0_b_1_62)">
<path d="M370.23 133.445C368.639 131.119 358.543 124.883 349.42 123.165C348.889 123.065 345.707 111.087 304.07 112.161L287.627 113.503L269.858 116.187L234.321 122.36L231.404 122.897C231.404 122.897 166.963 134.975 161.39 134.975C155.816 134.975 131.738 128.183 130.096 126.117C128.454 124.051 99.5971 77 99.5971 77C97.1219 77.0895 91.8533 77.3758 90.5803 77.8052L85.0109 79.684L88.7238 114.308L62.4685 106.793C59.4629 106.435 49.2083 106.793 48.4127 108.671C48.1713 109.241 75.3752 121.286 91.3759 126.117L91.3758 130.152L91.3759 134.17L92.4367 148.126L41.5174 134.975C38.0697 135.064 30.7501 135.458 29.0528 136.317C27.3555 137.176 67.0064 152.779 85.6591 159.847C86.7106 168.818 90.3909 170.928 92.494 171.456C108.495 175.393 129.291 181.828 152.373 183.287C159.72 183.752 163.872 185.88 199.457 181.747C241.855 192.83 261.585 196.692 290.114 199.704C304.599 200.544 308.13 199.556 312.723 197.253C303.954 187.586 276.889 171.101 271.816 171.993C307.618 164.627 379.195 146.551 370.23 133.445Z" fill="#EEE4E4"/>
</g>
<defs>
<filter id="filter0_b_1_62" x="12" y="60" width="376" height="157" filterUnits="userSpaceOnUse" color-interpolation-filters="sRGB">
<feFlood flood-opacity="0" result="BackgroundImageFix"/>
<feGaussianBlur in="BackgroundImageFix" stdDeviation="8.5"/>
<feComposite in2="SourceAlpha" operator="in" result="effect1_backgroundBlur_1_62"/>
<feBlend mode="normal" in="SourceGraphic" in2="effect1_backgroundBlur_1_62" result="shape"/>
</filter>
</defs>
</svg>
